<svg width="91" height="37" viewBox="0 0 91 37" fill="none" xmlns="http://www.w3.org/2000/svg">
<path d="M13.2443 35.8637C10.6989 35.8637 8.43181 35.4262 6.44318 34.5512C4.46591 33.6649 2.90341 32.449 1.75568 30.9035C0.619315 29.3467 0.0340875 27.5512 -3.33786e-06 25.5172H7.43181C7.47727 26.3694 7.75568 27.1194 8.26704 27.7672C8.78977 28.4035 9.48295 28.8978 10.3466 29.2501C11.2102 29.6024 12.1818 29.7785 13.2614 29.7785C14.3864 29.7785 15.3807 29.5797 16.2443 29.1819C17.108 28.7842 17.7841 28.2331 18.2727 27.5285C18.7614 26.824 19.0057 26.0115 19.0057 25.091C19.0057 24.1592 18.7443 23.3353 18.2216 22.6194C17.7102 21.8922 16.9716 21.324 16.0057 20.9149C15.0511 20.5058 13.9148 20.3012 12.5966 20.3012H9.34091V14.8808H12.5966C13.7102 14.8808 14.6932 14.6876 15.5455 14.3012C16.4091 13.9149 17.0795 13.3808 17.5568 12.699C18.0341 12.0058 18.2727 11.199 18.2727 10.2785C18.2727 9.40352 18.0625 8.63647 17.642 7.97738C17.233 7.30693 16.6534 6.7842 15.9034 6.4092C15.1648 6.0342 14.3011 5.8467 13.3125 5.8467C12.3125 5.8467 11.3977 6.02852 10.5682 6.39216C9.73863 6.74443 9.07386 7.25011 8.57386 7.9092C8.07386 8.56829 7.80681 9.34102 7.77272 10.2274H0.69886C0.732951 8.21602 1.30681 6.44329 2.42045 4.9092C3.53409 3.37511 5.03409 2.17625 6.92045 1.31261C8.81818 0.43761 10.9602 0.000109673 13.3466 0.000109673C15.7557 0.000109673 17.8636 0.43761 19.6705 1.31261C21.4773 2.18761 22.8807 3.36943 23.8807 4.85806C24.892 6.33534 25.392 7.99443 25.3807 9.83534C25.392 11.7899 24.7841 13.4206 23.5568 14.7274C22.3409 16.0342 20.7557 16.8637 18.8011 17.216V17.4887C21.3693 17.8183 23.3239 18.7103 24.6648 20.1649C26.017 21.6081 26.6875 23.4149 26.6761 25.5853C26.6875 27.574 26.1136 29.341 24.9545 30.8865C23.8068 32.4319 22.2216 33.6478 20.1989 34.5342C18.1761 35.4206 15.858 35.8637 13.2443 35.8637ZM45.669 36.1535C42.7372 36.1422 40.2145 35.4206 38.1008 33.9887C35.9986 32.5569 34.3793 30.4831 33.2429 27.7672C32.1179 25.0512 31.5611 21.7842 31.5724 17.966C31.5724 14.1592 32.1349 10.9149 33.2599 8.23306C34.3963 5.55125 36.0156 3.51147 38.1179 2.11375C40.2315 0.704656 42.7486 0.000109673 45.669 0.000109673C48.5895 0.000109673 51.1009 0.704656 53.2031 2.11375C55.3168 3.52284 56.9418 5.56829 58.0781 8.25011C59.2145 10.9206 59.777 14.1592 59.7656 17.966C59.7656 21.7956 59.1974 25.0683 58.0611 27.7842C56.9361 30.5001 55.3224 32.574 53.2202 34.0058C51.1179 35.4376 48.6008 36.1535 45.669 36.1535ZM45.669 30.0342C47.669 30.0342 49.2656 29.0285 50.4588 27.0172C51.652 25.0058 52.2429 21.9887 52.2315 17.966C52.2315 15.3183 51.9588 13.1137 51.4134 11.3524C50.8793 9.59102 50.1179 8.26715 49.1293 7.38079C48.152 6.49443 46.9986 6.05125 45.669 6.05125C43.6804 6.05125 42.0895 7.04557 40.8963 9.0342C39.7031 11.0228 39.1008 14.0001 39.0895 17.966C39.0895 20.6478 39.3565 22.8865 39.8906 24.6819C40.4361 26.466 41.2031 27.8069 42.1918 28.7047C43.1804 29.591 44.3395 30.0342 45.669 30.0342ZM75.4602 30.0683V5.93193H81.5625V30.0683H75.4602ZM66.4432 21.0512V14.949H90.5795V21.0512H66.4432Z" fill="#B82B37"/>
</svg>
