<svg width="58" height="49" viewBox="0 0 58 49" fill="none" xmlns="http://www.w3.org/2000/svg">
<path d="M24.5373 0C22.0745 0 20.0763 2.05762 20.0763 4.59375V6.125H18.5893C14.4815 6.125 11.1544 9.55117 11.1544 13.7812V24.1937L9.14693 25.0168C7.77146 25.5814 7.05584 27.1605 7.52982 28.6057C8.49637 31.6012 10.0205 34.2809 11.9629 36.5586C13.831 35.6781 15.8384 35.2283 17.8458 35.2188C20.9221 35.1996 24.0076 36.1949 26.6191 38.2238L26.7678 38.3387V17.7625L17.1024 21.7438V13.7812C17.1024 12.9391 17.7715 12.25 18.5893 12.25H39.4073C40.2251 12.25 40.8943 12.9391 40.8943 13.7812V21.7438L31.2288 17.7625V38.3387L31.3775 38.2238C33.9333 36.2428 36.9444 35.2379 39.9649 35.2188C42.0374 35.2092 44.1099 35.6494 46.0337 36.5586C47.9761 34.2904 49.5003 31.6012 50.4668 28.6057C50.9315 27.151 50.2252 25.5814 48.8497 25.0168L46.8423 24.1937V13.7812C46.8423 9.55117 43.5151 6.125 39.4073 6.125H37.9203V4.59375C37.9203 2.05762 35.9221 0 33.4593 0H24.5373ZM36.7493 45.5643C38.7288 44.0234 41.3868 44.0234 43.3664 45.5643C45.1322 46.9424 47.2605 48.2631 49.6118 48.7512C52.0746 49.268 54.6583 48.8277 57.1118 46.9232C58.097 46.1576 58.2921 44.7221 57.5486 43.7076C56.8051 42.6932 55.4111 42.4922 54.4259 43.2578C53.0412 44.3297 51.7679 44.5115 50.4947 44.2436C49.1099 43.9564 47.6229 43.1047 46.0523 41.8893C42.4835 39.1139 37.6415 39.1139 34.0634 41.8893C31.8329 43.6215 30.2808 44.4062 28.9983 44.4062C27.7158 44.4062 26.1637 43.6215 23.9332 41.8893C20.3644 39.1139 15.5224 39.1139 11.9443 41.8893C9.93689 43.4492 8.10603 44.3584 6.47033 44.3488C5.57814 44.3393 4.62088 44.0617 3.57069 43.2482C2.58556 42.4826 1.1915 42.6836 0.448004 43.698C-0.295494 44.7125 -0.0910323 46.1576 0.894102 46.9232C2.6692 48.3014 4.55583 48.933 6.45175 48.9426C9.60232 48.9617 12.4276 47.2773 14.6395 45.5643C16.6191 44.0234 19.2771 44.0234 21.2566 45.5643C23.5057 47.3156 26.1173 49 29.0076 49C31.898 49 34.5002 47.3061 36.7586 45.5643H36.7493Z" fill="#B82B37"/>
</svg>
