<svg width="49" height="48" viewBox="0 0 49 48" fill="none" xmlns="http://www.w3.org/2000/svg">
<path d="M17.8182 0H25.2424V5.25C25.2424 6.49687 26.2354 7.5 27.4697 7.5H34.8939C36.1282 7.5 37.1212 6.49687 37.1212 5.25V0H44.5455C47.0047 0 49 2.01562 49 4.5V43.5C49 45.9844 47.0047 48 44.5455 48H34.4485C35.2095 46.6781 35.6364 45.1406 35.6364 43.5V28.5C36.5644 27.2437 37.1212 25.6875 37.1212 24V21C37.1212 16.8563 33.7989 13.5 29.697 13.5H13.3636V4.5C13.3636 2.01562 15.3589 0 17.8182 0ZM1.48485 31.5H31.1818V43.5C31.1818 45.9844 29.1866 48 26.7273 48H5.93939C3.48011 48 1.48485 45.9844 1.48485 43.5V31.5ZM2.9697 18H29.697C31.3396 18 32.6667 19.3406 32.6667 21V24C32.6667 25.6594 31.3396 27 29.697 27H2.9697C1.32708 27 0 25.6594 0 24V21C0 19.3406 1.32708 18 2.9697 18Z" fill="#B82B37"/>
</svg>
