<svg width="79" height="58" viewBox="0 0 79 58" fill="none" xmlns="http://www.w3.org/2000/svg">
<path d="M39.5 0C46.5853 0 52.3375 5.825 52.3375 13C52.3375 20.175 46.5853 26 39.5 26C32.4147 26 26.6625 20.175 26.6625 13C26.6625 5.825 32.4147 0 39.5 0ZM11.85 9C16.7628 9 20.7375 13.025 20.7375 18C20.7375 22.975 16.7628 27 11.85 27C6.93719 27 2.9625 22.975 2.9625 18C2.9625 13.025 6.93719 9 11.85 9ZM0 50C0 41.1625 7.07297 34 15.8 34C17.38 34 18.9106 34.2375 20.3548 34.675C16.2937 39.275 13.825 45.35 13.825 52V54C13.825 55.425 14.1213 56.775 14.652 58H3.95C1.76516 58 0 56.2125 0 54V50ZM64.348 58C64.8787 56.775 65.175 55.425 65.175 54V52C65.175 45.35 62.7063 39.275 58.6452 34.675C60.0894 34.2375 61.62 34 63.2 34C71.927 34 79 41.1625 79 50V54C79 56.2125 77.2348 58 75.05 58H64.348ZM58.2625 18C58.2625 13.025 62.2372 9 67.15 9C72.0628 9 76.0375 13.025 76.0375 18C76.0375 22.975 72.0628 27 67.15 27C62.2372 27 58.2625 22.975 58.2625 18ZM19.75 52C19.75 40.95 28.5881 32 39.5 32C50.4119 32 59.25 40.95 59.25 52V54C59.25 56.2125 57.4848 58 55.3 58H23.7C21.5152 58 19.75 56.2125 19.75 54V52Z" fill="#B82B37"/>
</svg>
