<svg width="58" height="48" viewBox="0 0 58 48" fill="none" xmlns="http://www.w3.org/2000/svg">
<path d="M52.3168 18.4C55.4527 18.4 58 20.91 58 24C58 27.09 55.4527 29.6 52.3168 29.6H39.3977L23.2411 46.96C22.6221 47.62 21.7594 48 20.8461 48H16.4111C15.3049 48 14.5235 46.93 14.8685 45.89L20.3792 29.6H10.2611L4.90265 36.2C4.59819 36.58 4.13135 36.8 3.63407 36.8H1.62465C0.569202 36.8 -0.202089 35.82 0.051625 34.81L2.79174 24L0.051625 13.19C-0.212238 12.18 0.569202 11.2 1.62465 11.2H3.63407C4.13135 11.2 4.59819 11.42 4.90265 11.8L10.2611 18.4H20.3792L14.8685 2.11C14.5235 1.07 15.3049 0 16.4111 0H20.8461C21.7594 0 22.6221 0.38 23.2411 1.04L39.3977 18.4H52.3168Z" fill="#B82B37"/>
</svg>
