<svg width="58" height="48" viewBox="0 0 58 48" fill="none" xmlns="http://www.w3.org/2000/svg">
<path d="M0 6.4C0 2.87 2.88993 0 6.44444 0H35.4444C38.999 0 41.8889 2.87 41.8889 6.4V9.6H46.9941C48.7059 9.6 50.3472 10.27 51.5556 11.47L56.117 16C57.3253 17.2 58 18.83 58 20.53V35.2C58 38.73 55.1101 41.6 51.5556 41.6H51.2233C50.176 45.29 46.7524 48 42.6944 48C38.6365 48 35.2229 45.29 34.1656 41.6H23.8344C22.7872 45.29 19.3635 48 15.3056 48C11.2476 48 7.83403 45.29 6.77674 41.6H6.44444C2.88993 41.6 0 38.73 0 35.2V6.4ZM51.5556 25.6V20.53L46.9941 16H41.8889V25.6H51.5556ZM19.3333 39.2C19.3333 36.99 17.5309 35.2 15.3056 35.2C13.0802 35.2 11.2778 36.99 11.2778 39.2C11.2778 41.41 13.0802 43.2 15.3056 43.2C17.5309 43.2 19.3333 41.41 19.3333 39.2ZM42.6944 43.2C44.9198 43.2 46.7222 41.41 46.7222 39.2C46.7222 36.99 44.9198 35.2 42.6944 35.2C40.4691 35.2 38.6667 36.99 38.6667 39.2C38.6667 41.41 40.4691 43.2 42.6944 43.2Z" fill="#B82B37"/>
</svg>
